<svg width="83" height="89" viewBox="0 0 83 89" fill="none" xmlns="http://www.w3.org/2000/svg">
<path d="M71.9333 43.1528C73.6625 44.3407 75.2043 45.6878 76.5589 47.1943C77.9134 48.7008 79.0806 50.3522 80.0604 52.1484C81.0403 53.9447 81.7608 55.8423 82.2219 57.8413C82.683 59.8403 82.9424 61.8828 83 63.9688C83 67.4163 82.3516 70.6611 81.0547 73.7031C79.7578 76.7451 77.971 79.396 75.6943 81.6558C73.4175 83.9155 70.7806 85.6973 67.7833 87.001C64.7861 88.3047 61.5583 88.971 58.1 89C55.4774 89 52.9413 88.6089 50.4917 87.8267C48.042 87.0444 45.7941 85.9146 43.7479 84.437C41.7017 82.9595 39.8861 81.1922 38.301 79.1353C36.716 77.0783 35.4911 74.804 34.6266 72.3125H0V5.5625H11.0667V0H16.6V5.5625H55.3333V0H60.8667V5.5625H71.9333V43.1528ZM5.53333 11.125V22.25H66.4V11.125H60.8667V16.6875H55.3333V11.125H16.6V16.6875H11.0667V11.125H5.53333ZM33.3297 66.75C33.2432 65.8519 33.2 64.9248 33.2 63.9688C33.2 61.4772 33.5458 59.0581 34.2375 56.7114C34.9292 54.3647 35.9811 52.1484 37.3932 50.0625H33.2V44.5H38.7333V48.2373C39.9149 46.7598 41.2262 45.4561 42.6672 44.3262C44.1082 43.1963 45.6644 42.2257 47.3359 41.4146C49.0075 40.6034 50.751 39.995 52.5667 39.5894C54.3823 39.1838 56.2267 38.9665 58.1 38.9375C60.9819 38.9375 63.7486 39.4155 66.4 40.3716V27.8125H5.53333V66.75H33.3297ZM58.1 83.4375C60.7802 83.4375 63.2875 82.9305 65.6219 81.9165C67.9562 80.9025 70.0024 79.5119 71.7604 77.7446C73.5184 75.9774 74.9017 73.9204 75.9104 71.5737C76.9191 69.2271 77.4378 66.6921 77.4667 63.9688C77.4667 61.2744 76.9623 58.7539 75.9536 56.4072C74.945 54.0605 73.5616 52.0036 71.8036 50.2363C70.0457 48.4691 67.9995 47.0785 65.6651 46.0645C63.3307 45.0505 60.809 44.529 58.1 44.5C55.4198 44.5 52.9125 45.007 50.5781 46.021C48.2437 47.035 46.1976 48.4256 44.4396 50.1929C42.6816 51.9601 41.2983 54.0171 40.2896 56.3638C39.2809 58.7104 38.7622 61.2454 38.7333 63.9688C38.7333 66.6631 39.2377 69.1836 40.2464 71.5303C41.255 73.877 42.6384 75.9339 44.3964 77.7012C46.1543 79.4684 48.2005 80.859 50.5349 81.873C52.8693 82.887 55.391 83.4085 58.1 83.4375ZM60.8667 61.1875H69.1667V66.75H55.3333V50.0625H60.8667V61.1875ZM11.0667 44.5H16.6V50.0625H11.0667V44.5ZM22.1333 44.5H27.6667V50.0625H22.1333V44.5ZM22.1333 33.375H27.6667V38.9375H22.1333V33.375ZM11.0667 55.625H16.6V61.1875H11.0667V55.625ZM22.1333 55.625H27.6667V61.1875H22.1333V55.625ZM38.7333 38.9375H33.2V33.375H38.7333V38.9375ZM49.8 38.9375H44.2667V33.375H49.8V38.9375ZM60.8667 38.9375H55.3333V33.375H60.8667V38.9375Z" fill="#ef5a5a"/>
</svg>
