<svg width="79" height="79" viewBox="0 0 79 79" fill="none" xmlns="http://www.w3.org/2000/svg">
<path d="M75.6155 3.98909C75.5856 3.84496 75.5153 3.71235 75.4127 3.60688C75.3101 3.5014 75.1795 3.42744 75.0364 3.39371C65.4934 1.05783 43.4489 9.38093 31.4931 21.3378C29.3623 23.4528 27.4194 25.7494 25.6863 28.2014C22.0011 27.8677 18.3159 28.1487 15.1782 29.5186C6.31792 33.4176 3.74003 43.6006 3.02054 47.9721C2.98156 48.2116 2.99821 48.4569 3.0692 48.689C3.1402 48.921 3.26362 49.1336 3.42992 49.3102C3.59622 49.4868 3.80092 49.6228 4.02816 49.7075C4.2554 49.7922 4.49908 49.8234 4.7403 49.7986L18.9669 48.2355C18.9768 49.3094 19.0412 50.3822 19.16 51.4495C19.2342 52.1873 19.5631 52.8761 20.09 53.3973L25.5985 58.9103C26.1198 59.438 26.8087 59.7672 27.5464 59.8411C28.6065 59.9595 29.6719 60.0239 30.7385 60.0343L29.1784 74.2603C29.1541 74.5015 29.1854 74.7449 29.2701 74.972C29.3548 75.199 29.4905 75.4036 29.6667 75.5698C29.8429 75.736 30.055 75.8594 30.2865 75.9305C30.518 76.0015 30.7627 76.0184 31.0017 75.9798C35.3713 75.2772 45.567 72.6972 49.44 63.8314C50.8088 60.6877 51.0896 57.0188 50.7737 53.3481C53.231 51.6152 55.5322 49.6706 57.651 47.5365C69.6507 35.5937 77.9143 14.0158 75.6155 3.98909ZM46.985 32.0653C45.9368 31.0165 45.223 29.6803 44.9337 28.2255C44.6445 26.7707 44.7928 25.2627 45.3599 23.8923C45.927 22.5219 46.8874 21.3505 48.1197 20.5264C49.352 19.7023 50.8008 19.2624 52.2829 19.2624C53.765 19.2624 55.2138 19.7023 56.4461 20.5264C57.6784 21.3505 58.6388 22.5219 59.2059 23.8923C59.773 25.2627 59.9213 26.7707 59.632 28.2255C59.3427 29.6803 58.6289 31.0165 57.5808 32.0653C56.8856 32.7625 56.0598 33.3157 55.1507 33.6931C54.2416 34.0706 53.2671 34.2648 52.2829 34.2648C51.2987 34.2648 50.3241 34.0706 49.415 33.6931C48.506 33.3157 47.6802 32.7625 46.985 32.0653Z" stroke="#ef5a5a" stroke-width="5" stroke-linecap="round" stroke-linejoin="round"/>
<path d="M14.0821 56C12.3168 56.2167 10.6744 57.017 9.41594 58.2737C6.29573 61.4046 6 73 6 73C6 73 17.6025 72.7043 20.7245 69.5805C21.9863 68.324 22.788 66.6789 23 64.9108" stroke="#ef5a5a" stroke-width="5" stroke-linecap="round" stroke-linejoin="round"/>
</svg>
