<svg width="91" height="91" viewBox="0 0 91 91" fill="none" xmlns="http://www.w3.org/2000/svg">
<path d="M59.6749 40.7799V40.8271M13.2707 28.3985C11.1996 26.8067 9.60888 24.6732 8.67446 22.2339C7.74004 19.7946 7.49826 17.1444 7.97585 14.5763C8.45343 12.0082 9.63178 9.62207 11.3807 7.68176C13.1295 5.74145 15.3809 4.32247 17.8858 3.58165C20.3907 2.84083 23.0516 2.80702 25.5746 3.48395C28.0975 4.16089 30.3841 5.52221 32.1817 7.41745C33.9794 9.3127 35.218 11.6681 35.7606 14.2232C36.3033 16.7784 36.129 19.4339 35.2568 21.8961" stroke="#ef5a5a" stroke-width="5" stroke-linecap="round" stroke-linejoin="round"/>
<path d="M64.3949 7.72534V25.683C70.2388 29.0645 74.6881 34.416 76.9459 40.7791H83.278C84.5304 40.7791 85.7314 41.2766 86.617 42.1622C87.5025 43.0477 88 44.2487 88 45.5011V54.945C88 56.1974 87.5025 57.3984 86.617 58.284C85.7314 59.1695 84.5304 59.667 83.278 59.667H76.9411C75.3546 64.1529 72.6583 68.1665 69.1121 71.3444V80.9158C69.1121 82.7944 68.3659 84.5959 67.0376 85.9242C65.7093 87.2526 63.9077 87.9988 62.0292 87.9988C60.1507 87.9988 58.3491 87.2526 57.0208 85.9242C55.6925 84.5959 54.9462 82.7944 54.9462 80.9158V78.1629C53.3858 78.4243 51.8064 78.5554 50.2242 78.5549H31.3364C29.7542 78.5554 28.1748 78.4243 26.6144 78.1629V80.9158C26.6144 82.7944 25.8682 84.5959 24.5399 85.9242C23.2116 87.2526 21.41 87.9988 19.5315 87.9988C17.6529 87.9988 15.8514 87.2526 14.5231 85.9242C13.1947 84.5959 12.4485 82.7944 12.4485 80.9158V71.3444C8.17022 67.5195 5.15437 62.4855 3.80014 56.9087C2.44591 51.332 2.81716 45.4755 4.86475 40.1144C6.91233 34.7533 10.5397 30.1404 15.2667 26.8863C19.9938 23.6322 25.5976 21.8903 31.3364 21.8912H43.1413L64.3902 7.72534H64.3949Z" stroke="#ef5a5a" stroke-width="5" stroke-linecap="round" stroke-linejoin="round"/>
</svg>
